<?xml version="1.0" encoding="UTF-8"?>
<svg version="1.1" xmlns="http://www.w3.org/2000/svg" width="1024" height="1024">
<path d="M0 0 C337.92 0 675.84 0 1024 0 C1024 337.92 1024 675.84 1024 1024 C686.08 1024 348.16 1024 0 1024 C0 686.08 0 348.16 0 0 Z " fill="#FBF8F6" transform="translate(0,0)"/>
<path d="M0 0 C3.34910484 -0.17090354 6.69200574 -0.38994626 10.03738093 -0.62224436 C26.89347375 -1.77172685 43.72350733 -2.24327245 60.61585879 -2.39843988 C61.84584157 -2.41214829 63.07582435 -2.4258567 64.34307933 -2.43998051 C132.41601818 -3.13411593 197.05213667 1.79690729 248.17424273 51.14977407 C249.47024876 52.42235449 250.7632944 53.69795682 252.05335879 54.97656012 C252.69298163 55.60833434 253.33260447 56.24010856 253.99160981 56.89102745 C301.37431762 104.13627918 308.82763659 161.40598014 309.24807048 226.03059828 C309.28281891 255.68593223 308.1218535 285.29758673 306.02992129 314.87499762 C305.95110138 316.0457799 305.87228148 317.21656218 305.79107308 318.42282271 C305.33552237 325.13118651 304.80432814 331.82513129 304.15047765 338.51720464 C303.96098857 340.52337238 303.79076822 342.53147871 303.64235902 344.54110301 C302.72073096 356.55985665 300.62872333 363.94855174 291.43176401 372.12466991 C290.25028733 373.12439359 289.06077065 374.11472375 287.86194754 375.09357905 C285.87296513 376.77870197 284.20594016 378.65251231 282.55335879 380.66406012 C279.16540969 384.66799997 275.43869136 388.29240626 271.70960879 391.97656012 C269.64886534 394.06406647 267.70820253 396.18575234 265.80335879 398.41406012 C262.39025207 402.40675099 258.69027726 406.0636395 254.92835879 409.72656012 C252.2132042 412.50636124 249.67734493 415.39567405 247.13294864 418.33056402 C244.20679383 421.66280384 241.15876203 424.87632418 238.11585879 428.10156012 C237.1538959 429.13857061 237.1538959 429.13857061 236.17249942 430.19653082 C233.07508794 433.5279332 229.95587436 436.7808483 226.62757754 439.88281012 C226.06514346 440.42848639 225.50270938 440.97416265 224.92323184 441.53637457 C223.88346393 442.54103953 222.8171799 443.5193455 221.72059512 444.46166754 C219.23500579 446.9198533 218.31807873 448.59771399 218.25387454 452.15838385 C218.96884124 459.88015737 220.01200598 467.47272377 221.37757754 475.10546637 C221.68385577 476.86182661 221.68385577 476.86182661 221.99632144 478.65366888 C222.65569205 482.42894847 223.32328698 486.202723 223.99085879 489.97656012 C224.4524395 492.61185322 224.91348591 495.24723125 225.37342715 497.88281012 C225.48743271 498.53600163 225.60143826 499.18919313 225.71889853 499.86217833 C225.83258875 500.51358856 225.94627896 501.1649988 226.06341434 501.83614874 C226.5187244 504.44444102 226.97470337 507.05261663 227.43136477 509.66067266 C229.01607082 518.72111357 230.54686653 527.78884615 232.03071475 536.86626959 C234.42072687 551.46967453 236.99260573 566.03836658 239.61585879 580.60156012 C239.80356845 581.64500586 239.9912781 582.6884516 240.18467593 583.7635169 C242.38123627 595.96081112 244.62242777 608.14881608 246.91664004 620.32812262 C247.54919128 623.70423046 248.18114829 627.08044907 248.81297183 630.45669317 C249.41771772 633.67001865 250.03284478 636.88124392 250.6483295 640.09252691 C251.01559381 642.04987436 251.3823996 644.00730793 251.74867129 645.96484137 C251.92211566 646.8520487 252.09556003 647.73925604 252.27426028 648.65334845 C253.70850055 656.42452052 253.70850055 656.42452052 252.30335879 660.41406012 C250.29164004 662.70312262 250.29164004 662.70312262 247.61585879 665.03906012 C247.13036563 665.46582037 246.64487247 665.89258062 246.14466739 666.33227301 C241.77319042 670.1254357 237.22016107 673.68967161 232.64515567 677.23241949 C228.55071845 680.40705947 224.55698636 683.67623101 220.61585879 687.03906012 C215.91522319 691.0499514 211.1733229 695.00021507 206.38148379 698.90234137 C202.51155832 702.06016126 198.65741616 705.2369074 194.80335879 708.41406012 C190.0629787 712.32186689 185.31714273 716.22227992 180.55335879 720.10156012 C176.03571676 723.79096778 171.58292726 727.55224204 167.13831973 731.32885504 C162.84129105 734.97445213 158.4862871 738.54423475 154.11585879 742.10156012 C150.98536028 744.67552556 147.89170246 747.28982915 144.80335879 749.91406012 C139.0278914 754.81955419 133.18160689 759.63204918 127.30335879 764.41406012 C125.57385012 765.83030923 123.84469062 767.24698485 122.11585879 768.66406012 C116.8272798 772.9917671 111.522883 777.29984566 106.21790957 781.60741949 C99.6427219 786.94770522 93.08581022 792.31009927 86.53773379 797.68359137 C80.49445665 802.63806579 74.41717198 807.54688129 68.30335879 812.41406012 C64.20108841 810.12829322 60.71102736 807.35417742 57.17835879 804.28906012 C56.01885872 803.29480479 54.85869265 802.30132566 53.69789004 801.30859137 C53.12377383 800.81697515 52.54965762 800.32535894 51.95814395 799.81884527 C49.62249504 797.83605922 47.24611034 795.90544545 44.86585879 793.97656012 C40.00127255 790.01833055 35.24273702 785.9475695 30.49281192 781.85351324 C26.99119528 778.84174024 23.45558287 775.88354321 19.86585879 772.97656012 C14.76108036 768.83409632 9.80713198 764.53286913 4.8526752 760.21337652 C0.34376553 756.29143908 -4.24371138 752.48366897 -8.88804746 748.72265387 C-12.19962942 746.0006164 -15.44968002 743.21256052 -18.69664121 740.41406012 C-24.61771524 735.31433258 -30.62622184 730.33553275 -36.69664121 725.41406012 C-40.36710159 722.41869214 -44.03291776 719.41766297 -47.69664121 716.41406012 C-48.33408261 715.8915064 -48.97152402 715.36895269 -49.62828183 714.83056402 C-57.52045618 708.35668811 -65.38886583 701.85966667 -73.16490293 695.24657965 C-77.35992303 691.68377608 -81.61578399 688.20080436 -85.88414121 684.72656012 C-89.01463912 682.15259517 -92.10831982 679.53831676 -95.19664121 676.91406012 C-105.03994709 668.30027936 -105.03994709 668.30027936 -115.53648496 660.56249762 C-117.69664121 658.41406012 -117.69664121 658.41406012 -117.88804746 655.48046637 C-117.68050839 654.3241773 -117.47296933 653.16788824 -117.25914121 651.97656012 C-117.15077939 651.33186773 -117.04241757 650.68717535 -116.93077207 650.02294683 C-116.54956345 647.81343994 -116.12507764 645.61487528 -115.69664121 643.41406012 C-115.38326889 641.7280241 -115.07080202 640.04181959 -114.75914121 638.35546637 C-114.12254526 634.94666817 -113.46585026 631.54268696 -112.79429746 628.14062262 C-111.78372066 622.95494151 -110.8651087 617.75431493 -109.95355344 612.55056524 C-108.88337157 606.44918619 -107.78612178 600.35295378 -106.68101621 594.25781012 C-102.90872262 573.42956985 -99.17707338 552.59747075 -95.64900327 531.72634649 C-93.6534673 519.92555589 -91.59081065 508.13892208 -89.46257138 496.36132574 C-88.20127745 489.37998146 -86.94775465 482.39723526 -85.69664121 475.41406012 C-85.57722165 474.74838018 -85.4578021 474.08270025 -85.33476377 473.3968482 C-84.6086067 469.34235435 -83.89794325 465.28542048 -83.19664121 461.22656012 C-83.02430966 460.26483892 -82.85197812 459.30311773 -82.67442441 458.31225348 C-82.52706845 457.44479498 -82.3797125 456.57733648 -82.22789121 455.68359137 C-82.09962949 454.94729498 -81.97136777 454.21099859 -81.83921933 453.45239019 C-81.60342255 450.08138444 -82.24248836 448.01584081 -84.27085996 445.32812262 C-89.08665244 440.11175589 -94.00582383 435.01319374 -99.00914121 429.97656012 C-99.60750791 429.37344 -100.20587461 428.77031988 -100.82237363 428.1489234 C-103.1779184 425.80231494 -105.43535103 423.60696741 -108.11460996 421.62890387 C-108.63668027 421.22800543 -109.15875058 420.82710699 -109.69664121 420.41406012 C-109.69664121 419.75406012 -109.69664121 419.09406012 -109.69664121 418.41406012 C-110.25613965 418.18020605 -110.81563809 417.94635199 -111.39209104 417.70541143 C-114.27516883 416.08988301 -116.2415143 414.10087668 -118.56944394 411.75243902 C-119.03992154 411.28064718 -119.51039914 410.80885534 -119.99513364 410.32276678 C-121.54482197 408.76660331 -123.08740829 407.20358654 -124.63023496 405.64062262 C-125.71062016 404.5539624 -126.7915252 403.46781879 -127.872926 402.38216925 C-130.71768866 399.52411442 -133.55683367 396.66054936 -136.39439511 393.79534674 C-140.93105147 389.2155584 -145.47438841 384.64242331 -150.02109075 380.07261038 C-151.60380505 378.47972241 -153.18303169 376.88343711 -154.76193357 375.2867713 C-155.73931829 374.30255303 -156.71681588 373.31844683 -157.69444394 372.33447027 C-158.96541173 371.05112295 -158.96541173 371.05112295 -160.26205564 369.74184942 C-162.58560495 367.36059324 -162.58560495 367.36059324 -165.27589536 365.81141233 C-168.65354651 362.46640217 -168.63013342 359.25238372 -168.86316037 354.72863531 C-168.92682022 353.84126403 -168.99048008 352.95389275 -169.05606902 352.03963143 C-169.26170301 349.05678492 -169.43066245 346.07315303 -169.59727597 343.08788824 C-169.73162022 340.94642532 -169.8667258 338.80501005 -170.0025351 336.66363955 C-171.66586937 309.44984165 -172.59628507 282.1997115 -173.21260208 254.94422704 C-173.25903197 252.91882545 -173.30769648 250.8934881 -173.35687995 248.86815166 C-176.28497253 126.92151896 -176.28497253 126.92151896 -142.28589267 90.80753672 C-127.31455443 75.4214848 -108.94472117 62.05162066 -89.89841676 52.17244482 C-86.05935058 50.117994 -83.16917656 48.06705278 -80.3353703 44.73511457 C-79.72914395 44.02499167 -79.1229176 43.31486876 -78.49832076 42.58322698 C-76.85277487 40.60204025 -75.22935155 38.60617759 -73.61833024 36.59688044 C-52.22627823 9.95638102 -33.7641649 1.62368215 0 0 Z " fill="#04162C" transform="translate(444.69664120674133,133.5859398841858)"/>
<path d="M0 0 C3.34910484 -0.17090354 6.69200574 -0.38994626 10.03738093 -0.62224436 C26.89347375 -1.77172685 43.72350733 -2.24327245 60.61585879 -2.39843988 C61.84584157 -2.41214829 63.07582435 -2.4258567 64.34307933 -2.43998051 C132.41601818 -3.13411593 197.05213667 1.79690729 248.17424273 51.14977407 C249.47024876 52.42235449 250.7632944 53.69795682 252.05335879 54.97656012 C252.69298163 55.60833434 253.33260447 56.24010856 253.99160981 56.89102745 C301.37431762 104.13627918 308.82763659 161.40598014 309.24807048 226.03059828 C309.28281891 255.68593223 308.1218535 285.29758673 306.02992129 314.87499762 C305.95110138 316.0457799 305.87228148 317.21656218 305.79107308 318.42282271 C305.33552237 325.13118651 304.80432814 331.82513129 304.15047765 338.51720464 C303.96098857 340.52337238 303.79076822 342.53147871 303.64235902 344.54110301 C302.72073096 356.55985665 300.62872333 363.94855174 291.43176401 372.12466991 C290.25028733 373.12439359 289.06077065 374.11472375 287.86194754 375.09357905 C285.87296513 376.77870197 284.20594016 378.65251231 282.55335879 380.66406012 C279.16540969 384.66799997 275.43869136 388.29240626 271.70960879 391.97656012 C269.64886534 394.06406647 267.70820253 396.18575234 265.80335879 398.41406012 C262.39025207 402.40675099 258.69027726 406.0636395 254.92835879 409.72656012 C252.2132042 412.50636124 249.67734493 415.39567405 247.13294864 418.33056402 C244.20679383 421.66280384 241.15876203 424.87632418 238.11585879 428.10156012 C237.1538959 429.13857061 237.1538959 429.13857061 236.17249942 430.19653082 C233.07508794 433.5279332 229.95587436 436.7808483 226.62757754 439.88281012 C226.06514346 440.42848639 225.50270938 440.97416265 224.92323184 441.53637457 C223.88346393 442.54103953 222.8171799 443.5193455 221.72059512 444.46166754 C219.23500579 446.9198533 218.31807873 448.59771399 218.25387454 452.15838385 C218.96884124 459.88015737 220.01200598 467.47272377 221.37757754 475.10546637 C221.68385577 476.86182661 221.68385577 476.86182661 221.99632144 478.65366888 C222.65569205 482.42894847 223.32328698 486.202723 223.99085879 489.97656012 C224.4524395 492.61185322 224.91348591 495.24723125 225.37342715 497.88281012 C225.48743271 498.53600163 225.60143826 499.18919313 225.71889853 499.86217833 C225.83258875 500.51358856 225.94627896 501.1649988 226.06341434 501.83614874 C226.5187244 504.44444102 226.97470337 507.05261663 227.43136477 509.66067266 C229.01607082 518.72111357 230.54686653 527.78884615 232.03071475 536.86626959 C234.42072687 551.46967453 236.99260573 566.03836658 239.61585879 580.60156012 C239.80356845 581.64500586 239.9912781 582.6884516 240.18467593 583.7635169 C242.38123627 595.96081112 244.62242777 608.14881608 246.91664004 620.32812262 C247.54919128 623.70423046 248.18114829 627.08044907 248.81297183 630.45669317 C249.41771772 633.67001865 250.03284478 636.88124392 250.6483295 640.09252691 C251.01559381 642.04987436 251.3823996 644.00730793 251.74867129 645.96484137 C251.92211566 646.8520487 252.09556003 647.73925604 252.27426028 648.65334845 C253.70850055 656.42452052 253.70850055 656.42452052 252.30335879 660.41406012 C250.29164004 662.70312262 250.29164004 662.70312262 247.61585879 665.03906012 C247.13036563 665.46582037 246.64487247 665.89258062 246.14466739 666.33227301 C241.77319042 670.1254357 237.22016107 673.68967161 232.64515567 677.23241949 C228.55071845 680.40705947 224.55698636 683.67623101 220.61585879 687.03906012 C215.91522319 691.0499514 211.1733229 695.00021507 206.38148379 698.90234137 C202.51155832 702.06016126 198.65741616 705.2369074 194.80335879 708.41406012 C190.0629787 712.32186689 185.31714273 716.22227992 180.55335879 720.10156012 C176.03571676 723.79096778 171.58292726 727.55224204 167.13831973 731.32885504 C162.84129105 734.97445213 158.4862871 738.54423475 154.11585879 742.10156012 C150.98536028 744.67552556 147.89170246 747.28982915 144.80335879 749.91406012 C139.0278914 754.81955419 133.18160689 759.63204918 127.30335879 764.41406012 C125.57385012 765.83030923 123.84469062 767.24698485 122.11585879 768.66406012 C116.8272798 772.9917671 111.522883 777.29984566 106.21790957 781.60741949 C99.6427219 786.94770522 93.08581022 792.31009927 86.53773379 797.68359137 C80.49445665 802.63806579 74.41717198 807.54688129 68.30335879 812.41406012 C64.20108841 810.12829322 60.71102736 807.35417742 57.17835879 804.28906012 C56.01885872 803.29480479 54.85869265 802.30132566 53.69789004 801.30859137 C53.12377383 800.81697515 52.54965762 800.32535894 51.95814395 799.81884527 C49.62249504 797.83605922 47.24611034 795.90544545 44.86585879 793.97656012 C40.00127255 790.01833055 35.24273702 785.9475695 30.49281192 781.85351324 C26.99119528 778.84174024 23.45558287 775.88354321 19.86585879 772.97656012 C14.76108036 768.83409632 9.80713198 764.53286913 4.8526752 760.21337652 C0.34376553 756.29143908 -4.24371138 752.48366897 -8.88804746 748.72265387 C-12.19962942 746.0006164 -15.44968002 743.21256052 -18.69664121 740.41406012 C-24.61771524 735.31433258 -30.62622184 730.33553275 -36.69664121 725.41406012 C-40.36710159 722.41869214 -44.03291776 719.41766297 -47.69664121 716.41406012 C-48.33408261 715.8915064 -48.97152402 715.36895269 -49.62828183 714.83056402 C-57.52045618 708.35668811 -65.38886583 701.85966667 -73.16490293 695.24657965 C-77.35992303 691.68377608 -81.61578399 688.20080436 -85.88414121 684.72656012 C-89.01463912 682.15259517 -92.10831982 679.53831676 -95.19664121 676.91406012 C-105.03994709 668.30027936 -105.03994709 668.30027936 -115.53648496 660.56249762 C-117.69664121 658.41406012 -117.69664121 658.41406012 -117.88804746 655.48046637 C-117.68050839 654.3241773 -117.47296933 653.16788824 -117.25914121 651.97656012 C-117.15077939 651.33186773 -117.04241757 650.68717535 -116.93077207 650.02294683 C-116.54956345 647.81343994 -116.12507764 645.61487528 -115.69664121 643.41406012 C-115.38326889 641.7280241 -115.07080202 640.04181959 -114.75914121 638.35546637 C-114.12254526 634.94666817 -113.46585026 631.54268696 -112.79429746 628.14062262 C-111.78372066 622.95494151 -110.8651087 617.75431493 -109.95355344 612.55056524 C-108.88337157 606.44918619 -107.78612178 600.35295378 -106.68101621 594.25781012 C-102.90872262 573.42956985 -99.17707338 552.59747075 -95.64900327 531.72634649 C-93.6534673 519.92555589 -91.59081065 508.13892208 -89.46257138 496.36132574 C-88.20127745 489.37998146 -86.94775465 482.39723526 -85.69664121 475.41406012 C-85.57722165 474.74838018 -85.4578021 474.08270025 -85.33476377 473.3968482 C-84.6086067 469.34235435 -83.89794325 465.28542048 -83.19664121 461.22656012 C-83.02430966 460.26483892 -82.85197812 459.30311773 -82.67442441 458.31225348 C-82.52706845 457.44479498 -82.3797125 456.57733648 -82.22789121 455.68359137 C-82.09962949 454.94729498 -81.97136777 454.21099859 -81.83921933 453.45239019 C-81.60342255 450.08138444 -82.24248836 448.01584081 -84.27085996 445.32812262 C-89.08665244 440.11175589 -94.00582383 435.01319374 -99.00914121 429.97656012 C-99.60750791 429.37344 -100.20587461 428.77031988 -100.82237363 428.1489234 C-103.1779184 425.80231494 -105.43535103 423.60696741 -108.11460996 421.62890387 C-108.63668027 421.22800543 -109.15875058 420.82710699 -109.69664121 420.41406012 C-109.69664121 419.75406012 -109.69664121 419.09406012 -109.69664121 418.41406012 C-110.25613965 418.18020605 -110.81563809 417.94635199 -111.39209104 417.70541143 C-114.27516883 416.08988301 -116.2415143 414.10087668 -118.56944394 411.75243902 C-119.03992154 411.28064718 -119.51039914 410.80885534 -119.99513364 410.32276678 C-121.54482197 408.76660331 -123.08740829 407.20358654 -124.63023496 405.64062262 C-125.71062016 404.5539624 -126.7915252 403.46781879 -127.872926 402.38216925 C-130.71768866 399.52411442 -133.55683367 396.66054936 -136.39439511 393.79534674 C-140.93105147 389.2155584 -145.47438841 384.64242331 -150.02109075 380.07261038 C-151.60380505 378.47972241 -153.18303169 376.88343711 -154.76193357 375.2867713 C-155.73931829 374.30255303 -156.71681588 373.31844683 -157.69444394 372.33447027 C-158.96541173 371.05112295 -158.96541173 371.05112295 -160.26205564 369.74184942 C-162.58560495 367.36059324 -162.58560495 367.36059324 -165.27589536 365.81141233 C-168.65354651 362.46640217 -168.63013342 359.25238372 -168.86316037 354.72863531 C-168.92682022 353.84126403 -168.99048008 352.95389275 -169.05606902 352.03963143 C-169.26170301 349.05678492 -169.43066245 346.07315303 -169.59727597 343.08788824 C-169.73162022 340.94642532 -169.8667258 338.80501005 -170.0025351 336.66363955 C-171.66586937 309.44984165 -172.59628507 282.1997115 -173.21260208 254.94422704 C-173.25903197 252.91882545 -173.30769648 250.8934881 -173.35687995 248.86815166 C-176.28497253 126.92151896 -176.28497253 126.92151896 -142.28589267 90.80753672 C-127.31455443 75.4214848 -108.94472117 62.05162066 -89.89841676 52.17244482 C-86.05935058 50.117994 -83.16917656 48.06705278 -80.3353703 44.73511457 C-79.72914395 44.02499167 -79.1229176 43.31486876 -78.49832076 42.58322698 C-76.85277487 40.60204025 -75.22935155 38.60617759 -73.61833024 36.59688044 C-52.22627823 9.95638102 -33.7641649 1.62368215 0 0 Z M-34.69664121 63.41406012 C-39.52538406 68.35547219 -44.84637649 71.76301577 -50.76500058 75.2426734 C-81.73648006 93.6131221 -113.51746028 119.73248602 -122.86771876 156.04567224 C-129.83464279 185.5933165 -130.76636608 216.31012292 -130.82164121 246.53906012 C-130.82489738 247.63407732 -130.82815355 248.72909453 -130.8315084 249.85729408 C-130.89512701 300.2219737 -129.17458001 349.60588972 -92.24913335 387.32976723 C-77.5781839 401.915961 -60.71930309 414.7833491 -42.89848638 425.27780104 C-37.68634898 428.42485723 -32.84793157 432.09839461 -29.69664121 437.41406012 C-29.42885704 441.44236379 -30.24667199 444.94354007 -31.19664121 448.85156012 C-31.58301202 450.68841523 -31.96912811 452.52532929 -32.35003781 454.36332464 C-32.6365001 455.73271183 -32.92854036 457.10094135 -33.22549558 458.46809149 C-35.19564324 467.54323676 -36.79076869 476.68790349 -38.43895078 485.82580328 C-39.39993516 491.13600836 -40.37818287 496.44301783 -41.35679746 501.74999762 C-41.55195951 502.80920416 -41.74712155 503.8684107 -41.9481976 504.95971441 C-43.24720162 512.00138941 -44.55953777 519.04048664 -45.88023496 526.07812262 C-46.56934261 529.75254457 -47.25819912 533.4270134 -47.94664121 537.10156012 C-48.11376615 537.99340002 -48.28089108 538.88523993 -48.45308042 539.80410528 C-50.75147297 552.09066763 -52.89699365 564.38955361 -54.90025449 576.72778082 C-56.38491959 585.78072393 -58.06294875 594.78625549 -59.82164121 603.78906012 C-59.95018491 604.44815374 -60.07872861 605.10724737 -60.21116757 605.78631353 C-61.37133479 611.72824106 -62.5442617 617.66740038 -63.74351621 623.60156012 C-64.46419722 627.19536678 -65.1105959 630.79546288 -65.69664121 634.41406012 C-65.94027402 635.73277105 -65.94027402 635.73277105 -66.18882871 637.07812262 C-66.57927533 640.6158057 -66.4116993 642.50831986 -64.17320371 645.34374762 C-61.79150834 647.54836526 -59.2975703 649.47217403 -56.69664121 651.41406012 C-55.60815399 652.26366816 -54.52233511 653.11670285 -53.43882871 653.97265387 C-51.67445306 655.3658453 -49.90841576 656.75628187 -48.13365293 658.13622808 C-44.06826901 661.30012425 -40.10781653 664.56196581 -36.19664121 667.91406012 C-31.80318996 671.67796805 -27.33061099 675.30613133 -22.75914121 678.85156012 C-17.95496931 682.57985316 -13.28885876 686.42776906 -8.69664121 690.41406012 C-3.63193748 694.80783492 1.54034487 699.01289814 6.8358295 703.12450933 C13.80385843 708.54979051 20.58592468 714.19956955 27.38783145 719.83056402 C31.67780893 723.37693083 35.9931269 726.89236677 40.30335879 730.41406012 C41.14511661 731.10370855 41.98687442 731.79335699 42.85414004 732.50390387 C50.98435611 739.16465866 59.14313253 745.79012999 67.30335879 752.41406012 C71.3207826 750.53720877 74.37970093 747.89398679 77.67835879 744.97656012 C82.47437922 740.79588292 87.33569965 736.74742615 92.36585879 732.85156012 C97.58950579 728.80056857 102.66968875 724.61514475 107.69691348 720.32348394 C111.58027643 717.01221301 115.52676833 713.79848513 119.52601504 710.62890387 C123.05699095 707.81306232 126.55359998 704.95603795 130.05335879 702.10156012 C135.15703289 697.94141233 140.29577932 693.83438494 145.49085879 689.78906012 C150.66800299 685.75376058 155.70783955 681.58287841 160.69959903 677.32104254 C164.55317554 674.0341512 168.4748802 670.85247861 172.44398379 667.70702887 C177.01338095 664.04277186 181.52763751 660.31095264 186.02674747 656.56078863 C189.16496063 653.95281922 192.28843038 651.37432746 195.61976504 649.01562262 C196.52597598 648.36335699 197.43218692 647.71109137 198.36585879 647.03906012 C199.14058536 646.51570074 199.91531192 645.99234137 200.71351504 645.45312262 C203.21508172 642.24472506 202.74633059 639.26181346 202.30335879 635.41406012 C201.65705475 631.00109217 200.89335104 626.61547362 200.08320498 622.23040533 C199.6670384 619.97778524 199.25937647 617.72375878 198.85365176 615.4692359 C198.28603653 612.31939717 197.71513021 609.17018515 197.14124942 606.02148199 C195.88336335 599.114269 194.65224003 592.202369 193.42835879 585.28906012 C193.24788501 584.27206533 193.24788501 584.27206533 193.06376529 583.2345252 C190.55015617 569.05078026 188.20267425 554.84017487 185.85380435 540.62838507 C183.54659094 526.68267482 181.14549597 512.75861252 178.61585879 498.85156012 C175.82637087 483.51288631 173.11828314 468.15758568 170.85243106 452.73119879 C170.33830603 449.3755601 170.33830603 449.3755601 169.4710834 445.96606207 C167.64695556 437.77550941 167.64695556 437.77550941 169.46961856 433.9951148 C171.32958524 431.71493822 173.29213326 429.80616969 175.49085879 427.85156012 C176.99413608 426.39392065 178.49673865 424.93558504 179.99867129 423.47656012 C180.7402045 422.78175543 181.4817377 422.08695074 182.24574161 421.37109137 C184.93559962 418.81272617 187.39157682 416.11914603 189.86585879 413.35156012 C194.13858269 408.6676267 198.46132079 404.03378029 202.80335879 399.41406012 C208.12178558 393.75414418 213.40035012 388.06160058 218.63929629 382.32812262 C221.45733366 379.24563599 224.2838442 376.17120032 227.11585879 373.10156012 C227.60618594 372.56998297 228.09651309 372.03840582 228.60169864 371.49072027 C231.36698891 368.49714418 234.14264067 365.51364048 236.92835879 362.53906012 C237.54219424 361.88333014 238.15602969 361.22760015 238.78846622 360.55199957 C239.96449218 359.29678629 241.14164861 358.0426307 242.3202045 356.78979254 C243.39934209 355.63823599 244.46570402 354.47452661 245.51673579 353.29726171 C247.30335879 351.41406012 247.30335879 351.41406012 249.12739635 349.96873999 C253.30320188 346.28361618 254.71357316 342.99736867 255.11120176 337.42244768 C255.25907118 333.19022848 255.24438724 328.96648196 255.20912051 324.73241949 C255.21861327 322.82304518 255.23108111 320.9136837 255.24629092 319.00434637 C255.27813935 313.83263915 255.26585721 308.66191196 255.24363732 303.49018812 C255.22588227 298.07135316 255.24235986 292.65260062 255.25334048 287.23376226 C255.2660663 278.13469178 255.24931725 269.03601935 255.21595645 259.93700933 C255.17786203 249.42571614 255.19020254 238.91537344 255.22874129 228.40410328 C255.26053413 219.37026346 255.26497666 210.33670935 255.2466706 201.30283165 C255.23577203 195.91125715 255.2342617 190.52012904 255.25742602 185.12858343 C255.2776871 180.05888965 255.26355045 174.99041809 255.22316623 169.920856 C255.21393128 168.06333903 255.21653343 166.20571873 255.23200488 164.34824324 C255.69320293 153.25548821 255.69320293 153.25548821 251.09255862 143.60035467 C249.86045678 142.50248635 248.59870768 141.43653803 247.30335879 140.41406012 C246.35693415 139.45107048 245.42252107 138.47605637 244.50332522 137.4870429 C243.60145984 136.58438192 242.69959445 135.68172094 241.77039981 134.7517066 C241.26528872 134.2448432 240.76017764 133.73797979 240.23976016 133.21575689 C238.59807079 131.56972852 236.95282463 129.9273124 235.30726504 128.28515387 C234.14801607 127.12522956 232.98891542 125.965157 231.82995486 124.80494452 C229.41182058 122.38534401 226.99190799 119.9675404 224.57069278 117.55102301 C221.48659407 114.4726209 218.40700785 111.38974988 215.32875037 108.30550814 C212.93948846 105.91261143 210.54782365 103.52212774 208.15545344 101.132339 C207.01976718 99.99731395 205.88480693 98.86156192 204.75062633 97.72503233 C203.15808039 96.12991152 201.56230304 94.53809013 199.96571231 92.9470191 C198.61172084 91.59422102 198.61172084 91.59422102 197.23037601 90.21409369 C195.73467067 88.7424811 194.23400472 87.35753057 192.60688376 86.03128672 C188.65359232 82.79384053 185.35967011 79.35531737 182.16770411 75.38582385 C172.13554302 62.94927109 161.95792919 50.66405212 145.36063617 48.43401688 C136.3950145 47.56777452 127.39951247 47.77225956 118.41087675 48.07845712 C113.48169149 48.21767031 108.55265045 48.19693805 103.6218555 48.19825506 C95.36785956 48.22305888 87.12175912 48.35708619 78.87049747 48.56713629 C69.36257708 48.80851512 59.86189714 48.90577264 50.35108918 48.92076391 C40.15215202 48.93745261 29.95579899 49.0456053 19.75790215 49.18725848 C16.84557649 49.22247401 13.93347801 49.24219597 11.02099299 49.25890684 C6.4390272 49.29061972 1.86225633 49.38493781 -2.71759725 49.5262599 C-4.38763205 49.56896091 -6.05831046 49.59211238 -7.72889066 49.59330511 C-20.84015849 49.62406681 -26.50837384 53.34908026 -34.69664121 63.41406012 Z " fill="#03162C" transform="translate(444.69664120674133,133.5859398841858)"/>
<path d="M0 0 C1.71754018 -0.05564735 3.43501404 -0.11337463 5.15242004 -0.17301941 C10.79459326 -0.35593301 16.43724019 -0.47295198 22.08129883 -0.57983398 C23.52977121 -0.60853706 23.52977121 -0.60853706 25.00750566 -0.63782001 C34.15036221 -0.81716433 43.29332618 -0.97239624 52.43744946 -1.06964207 C63.00928535 -1.18337234 73.56946027 -1.36343195 84.13574219 -1.73339844 C161.02853003 -4.37287302 161.02853003 -4.37287302 179.28066349 11.24449635 C185.78921601 17.47453994 191.12073578 24.52235666 195.6867218 32.26966858 C198.05204706 36.11671924 200.93277811 38.75615634 204.39610767 41.61996174 C207.13562868 43.88562283 209.59298339 46.35150453 212.10839844 48.86474609 C212.6248996 49.37949493 213.14140076 49.89424377 213.67355347 50.42459106 C215.34841909 52.0951211 217.01967832 53.76920301 218.69067383 55.44360352 C219.86497165 56.61722653 221.03941778 57.79070117 222.21400452 58.96403503 C224.65878146 61.40734681 227.1017632 63.85243539 229.54345703 66.29882812 C232.67623938 69.43734517 235.81354152 72.57129997 238.95217037 75.703969 C241.37054406 78.11873739 243.78654128 80.53587208 246.20181465 82.95374107 C247.35854224 84.11113606 248.51601399 85.26778779 249.6742382 86.42368507 C251.28492769 88.03184448 252.8923933 89.64315759 254.49902344 91.25537109 C255.41421249 92.17135574 256.32940155 93.08734039 257.27232361 94.03108215 C260.7994765 97.77372185 260.52138065 100.86527515 260.56529236 105.77909851 C260.5760247 106.56651658 260.58675705 107.35393466 260.59781462 108.16521388 C260.63239721 110.81876519 260.6595784 113.47233742 260.68652344 116.12597656 C260.70914937 118.02309447 260.73201788 119.9202095 260.75511169 121.81732178 C260.95765612 139.17695629 261.06939197 156.5376337 261.15833187 173.89818096 C261.21941651 185.56683789 261.30685353 197.23403419 261.46191406 208.90185547 C261.59721503 219.08299749 261.68277342 229.26312898 261.70873934 239.44515926 C261.72407083 244.83078942 261.76323621 250.21374018 261.86161613 255.59854698 C261.95343573 260.67618779 261.97779409 265.74989651 261.952631 270.82826233 C261.95486758 272.68143508 261.98069144 274.53477026 262.03316498 276.38720131 C262.28355172 285.70844327 261.86451612 292.42424365 255.49874741 299.63092977 C253.11243427 302.07910237 250.64076478 304.3965998 248.08094609 306.66191924 C245.48044797 309.02874448 243.18890349 311.61127968 240.85083008 314.23657227 C236.71291824 318.76393463 232.54058413 323.25716738 228.35083008 327.73657227 C223.21709882 333.22598287 218.11876504 338.74538973 213.04614258 344.29125977 C206.28251549 351.68223777 199.4926247 359.0480443 192.61865234 366.33666992 C191.31886234 367.72425945 190.02886308 369.12108779 188.74902344 370.52709961 C186.02760396 373.50297377 183.49309168 376.12969644 180.25708008 378.56079102 C177.13867986 381.02639359 175.77022719 382.49493369 174.35083008 386.23657227 C174.14913307 393.71922584 176.03435532 401.13465574 177.56860352 408.41235352 C178.76623488 414.2674402 179.71187306 420.16278208 180.68560791 426.05813599 C181.2966036 429.72342289 181.93251637 433.38433341 182.56958008 437.04516602 C182.70578766 437.82798447 182.84199524 438.61080292 182.98233032 439.41734314 C184.18785847 446.3290919 185.40933078 453.2380088 186.63208008 460.14672852 C186.92946831 461.82785988 186.92946831 461.82785988 187.23286438 463.54295349 C188.21605109 469.09883461 189.2015692 474.65428415 190.19140625 480.20898438 C191.98941543 490.32518793 193.73142745 500.4434855 195.30648804 510.59690857 C196.3804218 517.50186064 197.57021483 524.38207753 198.79949951 531.26104736 C199.17846153 533.38383226 199.55425725 535.50715989 199.92944336 537.63061523 C201.15141534 544.53864839 202.3856478 551.44426026 203.64341736 558.34587097 C204.20643135 561.43980115 204.7643003 564.53464867 205.32162476 567.62960815 C205.58824794 569.10186332 205.8574187 570.57365971 206.12930298 572.04495239 C209.1289687 588.28166015 209.1289687 588.28166015 208.35083008 593.23657227 C206.37507192 595.54059118 204.85882917 596.98760936 202.47583008 598.73657227 C201.87867188 599.20667725 201.28151367 599.67678223 200.66625977 600.16113281 C198.90921642 601.54008716 197.13148944 602.88835875 195.35083008 604.23657227 C193.76376479 605.50274191 192.18004863 606.77312925 190.60083008 608.04907227 C189.80418945 608.68071289 189.00754883 609.31235352 188.18676758 609.96313477 C184.50415252 612.91531378 180.8655524 615.91927521 177.22583008 618.92407227 C166.62004889 627.67287396 156.00801039 636.40952317 145.16333008 644.86157227 C139.98718035 648.89649481 134.94825291 653.06678292 129.95678711 657.32739258 C126.07735186 660.63573145 122.13409514 663.84587587 118.13989258 667.01391602 C112.46574849 671.53574793 106.84978629 676.1300666 101.22387695 680.71166992 C99.59528049 682.03755802 97.96535929 683.36181861 96.33520508 684.68579102 C89.26266029 690.44515863 82.29820166 696.32744064 75.35083008 702.23657227 C72.54533621 700.92939288 70.23436057 699.47904438 67.84692383 697.51391602 C67.1941748 696.97984131 66.54142578 696.4457666 65.86889648 695.89550781 C64.83901611 695.04339722 64.83901611 695.04339722 63.78833008 694.17407227 C62.71977783 693.29779175 62.71977783 693.29779175 61.62963867 692.40380859 C59.53405892 690.68458268 57.44227836 688.96081971 55.35083008 687.23657227 C53.39400208 685.63055623 51.43497515 684.02726394 49.47583008 682.42407227 C48.1687207 681.35286133 48.1687207 681.35286133 46.83520508 680.26000977 C44.47790463 678.34007009 42.10527982 676.44145344 39.72583008 674.54907227 C34.29768399 670.22216348 28.95157115 665.79732308 23.59936523 661.37719727 C19.79127421 658.23545883 15.97014075 655.11543775 12.10083008 652.04907227 C8.36675128 649.08451646 4.72626386 646.01967633 1.10083008 642.92407227 C-3.96917805 638.59749563 -9.15526179 634.4515376 -14.41772461 630.36230469 C-18.96728741 626.81150325 -23.37192287 623.11513909 -27.75463867 619.36157227 C-31.64181098 616.04853437 -35.61886737 612.87323295 -39.64916992 609.73657227 C-40.80830715 608.82286875 -41.96716145 607.90880619 -43.12573242 606.99438477 C-45.53183348 605.09781099 -47.96822107 603.24976367 -50.42260742 601.41625977 C-51.62403413 600.48252835 -52.8245867 599.54767087 -54.02416992 598.61157227 C-54.59006836 598.20487305 -55.1559668 597.79817383 -55.73901367 597.37915039 C-57.89528242 595.65791832 -59.46269845 594.07758343 -60.07080078 591.33496094 C-60.27374375 584.76719136 -58.72490003 578.20946597 -57.46166992 571.79907227 C-57.23535889 570.61313477 -57.00904785 569.42719727 -56.77587891 568.20532227 C-56.07593264 564.54727265 -55.36453984 560.89163429 -54.64916992 557.23657227 C-53.83469855 553.07028644 -53.02139678 548.90378307 -52.21166992 544.73657227 C-52.00477539 543.67293457 -51.79788086 542.60929688 -51.5847168 541.51342773 C-49.91571171 532.83791889 -48.42603157 524.13583178 -46.96166992 515.42407227 C-44.42897046 500.36515843 -41.62943856 485.36238862 -38.77416992 470.36157227 C-34.63228645 448.59924298 -30.66016036 426.81176349 -26.84017944 404.99066162 C-26.71204865 404.25954163 -26.58391785 403.52842163 -26.4519043 402.77514648 C-26.273349 401.68520386 -26.273349 401.68520386 -26.09118652 400.57324219 C-25.64916992 398.23657227 -25.64916992 398.23657227 -24.91320801 395.49365234 C-23.56583842 390.3334596 -23.56583842 390.3334596 -24.36999512 385.19345093 C-25.77684052 383.10436437 -27.3178486 381.45291899 -29.11791992 379.68969727 C-29.80567505 378.97315979 -30.49343018 378.25662231 -31.20202637 377.51837158 C-36.37584365 372.49466683 -41.85818147 368.72413917 -48.00854492 365.01977539 C-77.94233322 346.9189031 -107.86307869 323.12993894 -116.73090088 287.6996851 C-123.51142444 258.15164427 -124.4822279 227.49549158 -124.58666992 197.29907227 C-124.5938567 195.65412073 -124.5938567 195.65412073 -124.60118866 193.97593784 C-124.73001339 143.58531472 -123.19694507 94.05186322 -86.25629961 56.2662276 C-71.57564744 41.6543162 -54.7525782 28.85132582 -36.9754324 18.24841404 C-31.30004954 14.83907184 -25.31651869 10.94696825 -21.40097332 5.50027752 C-16.46094765 -1.12290892 -7.49551466 0.15218722 0 0 Z M-30.64916992 54.23657227 C-34.16397629 58.40718988 -37.76269829 62.48141437 -41.63745117 66.32250977 C-42.33507568 67.01683105 -43.0327002 67.71115234 -43.75146484 68.42651367 C-44.48083252 69.14758301 -45.2102002 69.86865234 -45.96166992 70.61157227 C-46.73422119 71.38033691 -47.50677246 72.14910156 -48.30273438 72.94116211 C-51.57293028 76.19517056 -54.84910482 79.44313493 -58.12475586 82.69165039 C-60.53082277 85.07952579 -62.93380031 87.47048019 -65.33666992 89.86157227 C-66.0660376 90.5826416 -66.79540527 91.30371094 -67.546875 92.04663086 C-71.44732514 95.92861253 -75.17508994 99.87437667 -78.69374752 104.10733318 C-80.64916992 106.23657227 -80.64916992 106.23657227 -82.92018223 108.02624989 C-86.81940277 111.21964919 -89.27889462 113.73422617 -90.505476 118.71092796 C-90.85602896 123.01315519 -90.92490785 127.23721881 -90.89306641 131.54980469 C-90.91347633 133.19346954 -90.93762099 134.83709158 -90.9651947 136.48065186 C-91.02735187 140.92558159 -91.0322694 145.36880283 -91.02275729 149.8140924 C-91.01941598 153.53638867 -91.04269023 157.25833935 -91.06535107 160.98055345 C-91.11779488 169.77098293 -91.12210831 178.56055064 -91.09716797 187.35107422 C-91.07243501 196.39033466 -91.13212756 205.42626811 -91.23319191 214.46492308 C-91.31701984 222.2497543 -91.34606209 230.03352844 -91.33244187 237.81879693 C-91.32497 242.45792906 -91.33790375 247.09461555 -91.40447807 251.73332787 C-92.73337633 272.99937585 -92.73337633 272.99937585 -84.6953516 291.61748981 C-81.85173611 294.18516425 -78.88798519 296.1862402 -75.64916992 298.23657227 C-73.53623962 300.44218445 -73.53623962 300.44218445 -72.11791992 302.26782227 C-66.86359709 308.45712485 -60.91772749 314.03298638 -55.14916992 319.73657227 C-41.42262406 333.30851503 -41.42262406 333.30851503 -36.1394043 339.52368164 C-33.62680469 342.41168931 -30.88762388 345.06474735 -28.14916992 347.73657227 C-23.39637647 352.37372597 -18.99975023 357.22211907 -14.64916992 362.23657227 C-11.54616976 365.79989239 -8.37268422 369.28208966 -5.14916992 372.73657227 C-4.3525293 373.65438477 -3.55588867 374.57219727 -2.73510742 375.51782227 C0.06569659 378.62437436 0.06569659 378.62437436 5.35083008 382.23657227 C10.30083008 382.23657227 15.25083008 382.23657227 20.35083008 382.23657227 C20.35083008 439.65657227 20.35083008 497.07657227 20.35083008 556.23657227 C26.40423158 552.87357143 31.97283279 549.56673349 37.53833008 545.54907227 C38.27317627 545.02434326 39.00802246 544.49961426 39.76513672 543.95898438 C41.25931525 542.89139082 42.75209594 541.82183791 44.2434082 540.75024414 C46.13500422 539.39159084 48.03061969 538.03890965 49.92895508 536.68969727 C59.44088734 529.92483407 68.89231993 523.07580268 78.35083008 516.23657227 C78.35083008 523.16657227 78.35083008 530.09657227 78.35083008 537.23657227 C77.03083008 537.89657227 75.71083008 538.55657227 74.35083008 539.23657227 C72.6402304 540.4547697 70.95589794 541.71010305 69.28833008 542.98657227 C68.21872034 543.79999718 67.14835468 544.61242871 66.07739258 545.42407227 C65.48732422 545.87137695 64.89725586 546.31868164 64.28930664 546.77954102 C61.40381109 548.94838704 58.49134022 551.07995078 55.58032227 553.21435547 C48.352158 558.51427915 41.16117373 563.85824007 34.03833008 569.29907227 C33.3516626 569.82275391 32.66499512 570.34643555 31.95751953 570.88598633 C30.67377257 571.8704734 29.39705766 572.86422008 28.12866211 573.8684082 C26.35083008 575.23657227 26.35083008 575.23657227 24.5847168 576.37817383 C22.20029444 578.02186695 20.57892756 579.54728088 19.66015625 582.32373047 C18.66114602 588.48460833 18.0398404 596.53329769 21.46118164 602.01586914 C24.54845057 605.29946335 28.34010943 607.5449793 32.17700195 609.85571289 C36.16723714 612.39039059 39.78508334 615.41584719 43.47583008 618.36157227 C50.36896663 623.7414385 57.32601462 629.02994434 64.35083008 634.23657227 C67.1204553 632.9424646 69.42156844 631.51973397 71.78442383 629.58422852 C72.42677979 629.06054688 73.06913574 628.53686523 73.73095703 627.99731445 C74.40989014 627.43689453 75.08882324 626.87647461 75.78833008 626.29907227 C76.49626709 625.71931641 77.2042041 625.13956055 77.93359375 624.54223633 C82.90911922 620.45637435 87.83886439 616.31795262 92.74023438 612.14355469 C97.21111086 608.33799976 101.74631473 604.617696 106.30395508 600.91625977 C108.22098574 599.39910248 108.22098574 599.39910248 109.35083008 598.23657227 C109.44752735 596.77700005 109.47454798 595.31275393 109.47387791 593.84998226 C109.47586896 592.89702422 109.47786 591.94406618 109.47991139 590.96223062 C109.47554212 589.37325656 109.47554212 589.37325656 109.47108459 587.75218201 C109.47193902 586.63651779 109.47279344 585.52085357 109.47367376 584.37138134 C109.47533183 580.60173832 109.46980187 576.83213898 109.46435547 573.0625 C109.46407364 570.3727305 109.46418712 567.68296374 109.46479797 564.99319458 C109.4653234 559.18624347 109.46217463 553.37930356 109.45656013 547.57235527 C109.44844769 539.17638909 109.44583018 530.78042835 109.44457214 522.38445867 C109.44238122 508.76395245 109.43572004 495.1434522 109.42626953 481.52294922 C109.41709646 468.28857452 109.41001511 455.05420145 109.40576172 441.81982422 C109.405499 441.00463715 109.40523627 440.18945008 109.40496559 439.34956037 C109.40366059 435.26017956 109.40239687 431.17079875 109.40115368 427.08141792 C109.39077982 393.13313152 109.37288601 359.18485304 109.35083008 325.23657227 C119.25083008 325.23657227 129.15083008 325.23657227 139.35083008 325.23657227 C129.35083008 337.45879449 129.35083008 337.45879449 124.17504883 342.38500977 C120.18717101 346.43266306 117.89492136 348.88387734 117.89764404 354.83442688 C117.91828918 355.53045517 117.93893433 356.22648346 117.96020508 356.94360352 C117.96869476 358.03169563 117.96869476 358.03169563 117.97735596 359.14176941 C117.99963909 361.44489235 118.0498152 363.7464245 118.10083008 366.04907227 C118.12090574 367.61610699 118.13915465 369.18316625 118.15551758 370.75024414 C118.19947671 374.57962746 118.26844385 378.40783073 118.35083008 382.23657227 C131.41054976 384.11554544 131.41054976 384.11554544 143.79956055 380.89331055 C148.72499361 377.00411155 152.542614 372.18577136 156.35083008 367.23657227 C157.56959974 365.85234822 158.79609893 364.47478079 160.03833008 363.11157227 C160.54364258 362.51473633 161.04895508 361.91790039 161.56958008 361.30297852 C165.4991654 356.74431484 169.65581627 352.38090123 173.74829102 347.96850586 C175.35212808 346.23516945 176.95003382 344.49655687 178.54614258 342.75610352 C183.20769462 337.67722881 187.88723151 332.64556919 192.80395508 327.81079102 C194.41327793 326.17302054 195.91481938 324.47617998 197.41333008 322.73657227 C200.9623298 318.62423926 204.64683381 314.64629063 208.35083008 310.67407227 C208.93227783 310.04887695 209.51372559 309.42368164 210.11279297 308.77954102 C213.04530752 305.64229831 216.01415503 302.55534451 219.06176758 299.52954102 C221.4719496 297.13584405 223.77540081 294.70222544 225.97583008 292.11157227 C227.87760647 289.87582538 229.67358596 287.96255421 231.92114639 286.05438709 C234.97370685 282.5141937 234.98266564 280.78420745 234.99920654 276.15934753 C235.00841763 275.45834893 235.01762871 274.75735033 235.02711892 274.03510934 C235.05169809 271.69185973 235.04064139 269.35016787 235.02954102 267.00683594 C235.0395932 265.32450539 235.05174108 263.64218626 235.06582642 261.95988464 C235.09716549 257.39352473 235.09655477 252.82769172 235.08832073 248.26125121 C235.08416045 244.44673512 235.09513418 240.63232248 235.1059649 236.81782418 C235.13111074 227.8159655 235.12997841 218.81436931 235.11254883 209.8125 C235.0950371 200.53333751 235.12139418 191.25503499 235.16951537 181.97600001 C235.20931989 174.00380654 235.22192081 166.03188426 235.21280122 158.05959684 C235.20762229 153.30060518 235.21263893 148.5421901 235.24376678 143.78328514 C235.27185886 139.30541661 235.26587288 134.82884613 235.23405075 130.35101509 C235.22800955 128.7111748 235.23380974 127.07123988 235.25255966 125.43149567 C235.57195751 115.23740756 235.57195751 115.23740756 231.04620361 106.41670227 C229.26699697 104.72570607 229.26699697 104.72570607 227.35083008 103.23657227 C226.65602413 102.62836734 225.96121819 102.02016241 225.24535751 101.39352703 C223.95519511 100.26515026 222.65386739 99.14944222 221.34301758 98.04516602 C218.54561971 95.50556756 216.18152941 92.66396423 213.79614258 89.74047852 C213.31918945 89.24418945 212.84223633 88.74790039 212.35083008 88.23657227 C211.69083008 88.23657227 211.03083008 88.23657227 210.35083008 88.23657227 C210.12363785 87.68373566 209.89644562 87.13089905 209.66236877 86.56130981 C207.96390309 83.5507338 205.82156745 81.47614513 203.36621094 79.04077148 C202.86033951 78.53621429 202.35446808 78.0316571 201.83326721 77.5118103 C200.1652909 75.85030893 198.49045694 74.19589718 196.81567383 72.54125977 C195.65456739 71.38642533 194.49397568 70.23107318 193.33387756 69.07522583 C190.28232846 66.03696743 187.22525934 63.0043297 184.16656494 59.9732666 C179.26591865 55.11577746 174.37201311 50.25151966 169.48129463 45.38403702 C167.77023941 43.6832232 166.05582234 41.98585213 164.34104919 40.28878784 C163.2959369 39.25050142 162.25093279 38.21210609 161.20605469 37.17358398 C160.29053329 36.26631561 159.3750119 35.35904724 158.43174744 34.42428589 C156.35083008 32.23657227 156.35083008 32.23657227 155.35083008 30.23657227 C134.64477061 29.67297584 113.939995 29.25130569 93.22779083 28.99308014 C83.60764946 28.86992428 73.99230347 28.70244591 64.37524414 28.42602539 C55.98089185 28.1848663 47.59001298 28.03153985 39.19229269 27.97844839 C34.75384231 27.94745538 30.32531543 27.87611718 25.89009094 27.6990509 C-1.45474876 26.64953267 -13.94097855 32.57530714 -30.64916992 54.23657227 Z " fill="#FAF7F5" transform="translate(438.649169921875,183.763427734375)"/>
<path d="M0 0 C34.49553626 -1.89535914 34.49553626 -1.89535914 41.484375 3.05859375 C44.68649203 6.02203429 47.24306893 9.32115051 49.62744141 12.96484375 C54.16604667 19.69444415 60.2308117 25.34133255 66 31 C70.5146233 35.42813626 74.89773433 39.8605181 78.90483093 44.75907898 C80.96958002 47.11020699 80.96958002 47.11020699 83.72859192 48.97761536 C88.87476907 53.00214417 92.07654515 56.34889061 92.96884155 63.0039978 C93.41623358 69.27837403 93.23828411 75.54177649 93.07421875 81.82421875 C93.0536764 84.1401651 93.0380306 86.45615958 93.02705383 88.77217102 C92.9852566 94.83806709 92.87738672 100.90101862 92.75531006 106.96575928 C92.62244082 114.25825909 92.57239456 121.55174927 92.50832367 128.84511566 C92.40201595 139.89878522 92.19115201 150.94600769 92 162 C64.28 162 36.56 162 8 162 C8 167.94 8 173.88 8 180 C7.67 192.54 7.34 205.08 7 218 C-25.01 218 -57.02 218 -90 218 C-89.505 225.92 -89.505 225.92 -89 234 C-89 240.93 -89 247.86 -89 255 C-68.87 255 -48.74 255 -28 255 C-27.68353817 275.28033486 -27.42583775 295.55866048 -27.27462959 315.84084034 C-27.20254376 325.25897132 -27.10433697 334.67545562 -26.94384766 344.0925293 C-26.80397212 352.30398186 -26.7139092 360.51424177 -26.68276107 368.7268526 C-26.66456039 373.07314098 -26.62204199 377.41601872 -26.51977921 381.76120949 C-25.87292047 410.33685506 -25.87292047 410.33685506 -31.0055542 416.48300171 C-34.34733164 419.50414731 -37.89398839 421.20032948 -42 423 C-43.96679522 424.35424279 -45.91111846 425.74285292 -47.8125 427.1875 C-51.8501171 430 -51.8501171 430 -53 430 C-53 381.82 -53 333.64 -53 284 C-60.59 284 -68.18 284 -76 284 C-80.54814756 280.69225632 -82.17369373 279.3481635 -85 275 C-86.1462441 273.64906945 -87.31245989 272.31477655 -88.5 271 C-89.056875 270.3503125 -89.61375 269.700625 -90.1875 269.03125 C-92.85607643 266.040604 -95.71784508 263.25880702 -98.59375 260.46875 C-100.56626534 258.4450005 -102.40870971 256.39010541 -104.25 254.25 C-108.12602935 249.7827825 -112.28222368 245.64232415 -116.5 241.5 C-121.35045445 236.73631576 -126.02411656 231.91825538 -130.45898438 226.76367188 C-132.37546198 224.57028876 -134.40994427 222.52766601 -136.5 220.5 C-139.87301714 217.17256417 -143.03599322 213.76144453 -146.0639801 210.11827087 C-147.96013764 207.94039229 -147.96013764 207.94039229 -150.27964783 206.14064026 C-153.96402238 203.04727854 -156.59881698 200.60146538 -157.790802 195.8432312 C-158.03874753 192.1233274 -158.01328989 188.50307011 -157.87890625 184.77734375 C-157.86208527 183.42261518 -157.84929058 182.06783123 -157.84031677 180.71302795 C-157.80622042 177.17534795 -157.71807189 173.64108215 -157.61798096 170.10473633 C-157.52531639 166.48500755 -157.48468354 162.86471778 -157.43945312 159.24414062 C-157.34340902 152.16137745 -157.19015112 145.08091351 -157 138 C-151.17928378 137.97535362 -145.35859766 137.9571657 -139.5378418 137.94506836 C-137.55606559 137.94002733 -135.57429311 137.93319462 -133.5925293 137.92456055 C-130.75047891 137.91248485 -127.90847753 137.90676955 -125.06640625 137.90234375 C-124.17474258 137.89718246 -123.28307892 137.89202118 -122.36439514 137.88670349 C-120.24259399 137.88650823 -118.1208922 137.9378997 -116 138 C-114.38512927 139.61487073 -114.7404636 141.44810941 -114.61108398 143.68408203 C-114.55109726 144.68247101 -114.49111053 145.68085999 -114.42930603 146.70950317 C-114.33861595 148.34216629 -114.33861595 148.34216629 -114.24609375 150.0078125 C-114.14833397 151.67878494 -114.14833397 151.67878494 -114.04859924 153.3835144 C-113.91113463 155.74903871 -113.77594503 158.11469613 -113.64282227 160.48046875 C-113.43953618 164.08885717 -113.22918353 167.69677839 -113.01757812 171.3046875 C-112.8849962 173.60153827 -112.75282179 175.8984126 -112.62109375 178.1953125 C-112.55860947 179.27160919 -112.49612518 180.34790588 -112.43174744 181.45681763 C-112.34649559 182.98277054 -112.34649559 182.98277054 -112.25952148 184.53955078 C-112.20924301 185.42699982 -112.15896454 186.31444885 -112.10716248 187.22879028 C-111.98129832 190.48362339 -112 193.74273422 -112 197 C-81.31 197 -50.62 197 -19 197 C-19 177.2 -19 157.4 -19 137 C2.78 137 24.56 137 47 137 C47 104.99 47 72.98 47 40 C31.49 40 15.98 40 0 40 C0 26.8 0 13.6 0 0 Z " fill="#F9F7F4" transform="translate(544,254)"/>
<path d="M0 0 C1.78664063 0.01208496 1.78664063 0.01208496 3.609375 0.02441406 C8.03188249 0.0660721 12.45350719 0.17776436 16.875 0.28125 C31.725 0.52875 31.725 0.52875 46.875 0.78125 C46.875 25.20125 46.875 49.62125 46.875 74.78125 C63.375 74.78125 79.875 74.78125 96.875 74.78125 C96.875 84.35125 96.875 93.92125 96.875 103.78125 C75.755 104.11125 54.635 104.44125 32.875 104.78125 C32.545 123.59125 32.215 142.40125 31.875 161.78125 C22.305 161.78125 12.735 161.78125 2.875 161.78125 C2.875 142.31125 2.875 122.84125 2.875 102.78125 C-21.875 102.78125 -46.625 102.78125 -72.125 102.78125 C-72.29 96.01625 -72.455 89.25125 -72.625 82.28125 C-72.69783203 80.16138672 -72.77066406 78.04152344 -72.84570312 75.85742188 C-73.11631361 62.57893065 -73.11631361 62.57893065 -70.5546875 57.93359375 C-68.53326752 55.93949026 -66.45723277 54.39264892 -64.125 52.78125 C-63.04548834 51.6066039 -62.00393839 50.39610749 -61 49.15625 C-54.84550043 42.01088996 -47.93124603 35.53544282 -41.23144531 28.90820312 C-33.02030111 20.86639261 -33.02030111 20.86639261 -25.25 12.40625 C-24.52574829 11.57643616 -24.52574829 11.57643616 -23.78686523 10.7298584 C-22.67184791 9.42245267 -21.59789352 8.07897804 -20.56640625 6.70471191 C-14.59285215 -0.45166244 -8.91165741 -0.28580315 0 0 Z " fill="#FAF7F5" transform="translate(459.125,253.21875)"/>
<path d="M0 0 C0 14.52 0 29.04 0 44 C-14.52 44 -29.04 44 -44 44 C-45.7026579 13.2211841 -45.7026579 13.2211841 -40.92138672 6.16748047 C-31.06114867 -4.49741011 -12.68955438 -0.70197535 0 0 Z " fill="#021429" transform="translate(479,282)"/>
<path d="M0 0 C15.18 0 30.36 0 46 0 C44.22143058 3.55713883 43.08476818 5.11389431 40.3125 7.75 C36.94356429 10.96365411 33.90128083 14.37686935 30.85375977 17.89013672 C27.91892297 21.23043167 24.86659503 24.45653156 21.8125 27.6875 C17.99654877 31.73564759 14.18417073 35.78527512 10.4296875 39.890625 C9.88078857 40.49044189 9.33188965 41.09025879 8.76635742 41.70825195 C7.73543271 42.83737515 6.7068398 43.96863302 5.6809082 45.10229492 C2.21917317 48.89041341 2.21917317 48.89041341 0 50 C0 33.5 0 17 0 0 Z " fill="#F9F7F5" transform="translate(586,451)"/>
<path d="M0 0 C2.65280089 3.97920134 2.26792031 7.41648689 2.23377991 12.03430176 C2.23478319 12.96988183 2.23578647 13.90546189 2.23682016 14.86939287 C2.23777603 18.01782992 2.22440729 21.16604603 2.21118164 24.31445312 C2.20898141 26.56615634 2.20767515 28.81786058 2.2071991 31.06956482 C2.20426118 35.92485904 2.19499839 40.7800862 2.18089485 45.63536072 C2.1586793 53.30675179 2.15054716 60.97811776 2.14439392 68.64953613 C2.13429781 79.40000113 2.11792854 90.15043288 2.09594727 100.90087891 C2.09455395 101.58324625 2.09316064 102.2656136 2.0917251 102.96865875 C2.09032957 103.65188648 2.08893404 104.33511421 2.08749622 105.03904581 C2.06772847 114.72573463 2.0498989 124.41242442 2.03442383 134.09912109 C2.03333298 134.7806587 2.03224213 135.46219631 2.03111822 136.16438657 C2.01310754 147.51998715 1.99914865 158.87559003 1.98725218 170.23119879 C1.9788254 177.86319353 1.96478067 185.49515186 1.94627964 193.1271286 C1.93566182 197.86795859 1.92906185 202.60878821 1.92347908 207.34962654 C1.91999863 209.55435087 1.91477384 211.75907322 1.90771103 213.96378899 C1.89830741 216.96443902 1.89498925 219.96503547 1.89320374 222.96569824 C1.88892665 223.84594052 1.88464957 224.72618279 1.88024288 225.63309908 C1.88343171 229.00783333 1.92522451 231.77567354 3 235 C2.01 235 1.02 235 0 235 C-2.66762484 232.33237516 -2.24405355 230.33288586 -2.26748681 226.70517206 C-2.26302537 225.81355293 -2.25856392 224.92193379 -2.25396729 224.0032959 C-2.25708727 223.05969759 -2.26020725 222.11609927 -2.26342177 221.14390707 C-2.27143864 217.96241212 -2.2650638 214.78110596 -2.25878906 211.59960938 C-2.26149729 209.32672513 -2.26505726 207.05384177 -2.26940918 204.78096008 C-2.2785555 198.59310329 -2.2749797 192.40531292 -2.26865101 186.21745491 C-2.26360259 179.75479065 -2.26827922 173.29213224 -2.27142334 166.82946777 C-2.27530001 155.27853985 -2.26906792 143.72764601 -2.25890467 132.17672342 C-2.24996873 121.69608834 -2.25152064 111.21549756 -2.26074219 100.73486328 C-2.27143671 88.57438211 -2.27543379 76.41393572 -2.26951766 64.25344896 C-2.26639267 57.8124844 -2.26600308 51.37155039 -2.27259064 44.93058777 C-2.27834954 38.87648148 -2.27439398 32.82245921 -2.26280212 26.76836205 C-2.26014772 24.54064766 -2.26093383 22.31292625 -2.26532745 20.08521461 C-2.27075367 17.05561423 -2.26398452 14.02628687 -2.25396729 10.9967041 C-2.25842873 10.10508497 -2.26289017 9.21346583 -2.26748681 8.29482794 C-2.2283 2.2283 -2.2283 2.2283 0 0 Z " fill="#1F2837" transform="translate(279,264)"/>
<path d="M0 0 C20.13 0 40.26 0 61 0 C61 24.42 61 48.84 61 74 C60.67 74 60.34 74 60 74 C59.505 38.36 59.505 38.36 59 2 C39.53 2 20.06 2 0 2 C0 1.34 0 0.68 0 0 Z " fill="#D3D3D2" transform="translate(445,254)"/>
<path d="M0 0 C0.33 0 0.66 0 1 0 C1.20045266 22.26095983 1.38378516 44.52200157 1.54658794 66.78326988 C1.62257727 77.11894505 1.70422485 87.45451833 1.79907227 97.79003906 C1.88170146 106.79568997 1.9538373 115.80135243 2.01323253 124.80718768 C2.04506879 129.57824551 2.08225397 134.34912952 2.13199425 139.12003708 C2.17860223 143.60638151 2.21122764 148.09260582 2.2329216 152.5791378 C2.24340509 154.22959848 2.25908857 155.88003518 2.28024101 157.5303936 C2.30826502 159.77632313 2.31792156 162.02158854 2.32279968 164.26766968 C2.33293941 165.52683889 2.34307913 166.78600811 2.35352612 168.08333397 C2.2368625 169.04583376 2.12019888 170.00833355 2 171 C0.515 171.99 0.515 171.99 -1 173 C-1.33 172.01 -1.66 171.02 -2 170 C-1.505 169.01 -1.505 169.01 -1 168 C-0.89349605 165.79579502 -0.85329222 163.5883078 -0.84178162 161.38156128 C-0.83684364 160.69381563 -0.83190566 160.00606999 -0.82681805 159.29748356 C-0.81140184 156.98201629 -0.80307132 154.66657683 -0.79467773 152.35107422 C-0.78510244 150.69562534 -0.77509257 149.04017893 -0.76467896 147.38473511 C-0.73758597 142.88088067 -0.71660024 138.3770157 -0.69667697 133.8731246 C-0.67484446 129.16988285 -0.64744242 124.46667371 -0.62062073 119.76345825 C-0.57065677 110.8528853 -0.52573171 101.94229429 -0.48259836 93.03168595 C-0.43325759 82.88912663 -0.37832777 72.74660003 -0.32291877 62.60407233 C-0.2090419 41.73607868 -0.10221531 20.86805381 0 0 Z " fill="#061D38" transform="translate(671,296)"/>
<path d="M0 0 C0.66 0.33 1.32 0.66 2 1 C-2.62 5.62 -7.24 10.24 -12 15 C-12.99 14.67 -13.98 14.34 -15 14 C-10.49913533 8.46170199 -5.96844441 3.97896294 0 0 Z " fill="#131E2D" transform="translate(431,217)"/>
<path d="M0 0 C0.99 0.33 1.98 0.66 3 1 C1.88121617 2.17262904 0.75476949 3.33795138 -0.375 4.5 C-1.00148438 5.1496875 -1.62796875 5.799375 -2.2734375 6.46875 C-4 8 -4 8 -6 8 C-6.268125 8.61875 -6.53625 9.2375 -6.8125 9.875 C-8 12 -8 12 -11 14 C-10.52590352 9.68269587 -7.96603297 7.66352539 -4.9375 4.75 C-4.01839844 3.85796875 -3.09929688 2.9659375 -2.15234375 2.046875 C-1.44207031 1.37140625 -0.73179687 0.6959375 0 0 Z " fill="#F3F2F0" transform="translate(707,535)"/>
<path d="M0 0 C0 4.33174693 -2.65822583 6.22353653 -5.5 9.1875 C-6.28697266 10.02571289 -6.28697266 10.02571289 -7.08984375 10.88085938 C-8.38661613 12.26015364 -9.69246259 13.63090644 -11 15 C-11.66 14.67 -12.32 14.34 -13 14 C-11.2088872 12.04115757 -9.41713468 10.08290714 -7.625 8.125 C-7.11710937 7.56941406 -6.60921875 7.01382812 -6.0859375 6.44140625 C-4.0883974 4.25988219 -2.09183907 2.09183907 0 0 Z " fill="#E3E2E1" transform="translate(441,258)"/>
<path d="M0 0 C0 3.96130371 -1.34877125 4.82914401 -4 7.6875 C-4.7425 8.49574219 -5.485 9.30398437 -6.25 10.13671875 C-6.8275 10.75160156 -7.405 11.36648437 -8 12 C-8.99 11.67 -9.98 11.34 -11 11 C-7.37 7.37 -3.74 3.74 0 0 Z " fill="#D4D4D4" transform="translate(390,216)"/>
<path d="M0 0 C0 3 0 3 -1.49609375 4.53515625 C-2.45708984 5.29119141 -2.45708984 5.29119141 -3.4375 6.0625 C-6.15875193 8.1671333 -6.15875193 8.1671333 -8 11 C-8.66 10.67 -9.32 10.34 -10 10 C-8.78934835 6.36804504 -7.46308874 5.57103808 -4.4375 3.3125 C-3.61121094 2.68988281 -2.78492188 2.06726563 -1.93359375 1.42578125 C-1.29550781 0.95527344 -0.65742187 0.48476563 0 0 Z " fill="#EFEFED" transform="translate(567,901)"/>
<path d="M0 0 C0 3.92823101 -1.51754449 5.06618894 -4 8 C-4.33 8.66 -4.66 9.32 -5 10 C-7.5625 10.625 -7.5625 10.625 -10 11 C-6.79239749 7.19364503 -3.59253891 3.45436433 0 0 Z " fill="#1D2127" transform="translate(390,152)"/>
<path d="M0 0 C0 3 0 3 -1.53125 4.60546875 C-2.1809375 5.12753906 -2.830625 5.64960937 -3.5 6.1875 C-4.1496875 6.71730469 -4.799375 7.24710938 -5.46875 7.79296875 C-5.9740625 8.19128906 -6.479375 8.58960938 -7 9 C-7.66 8.34 -8.32 7.68 -9 7 C-6.03 4.69 -3.06 2.38 0 0 Z " fill="#ECECEA" transform="translate(545,919)"/>
<path d="M0 0 C0 3.96130371 -1.34877125 4.82914401 -4 7.6875 C-4.7425 8.49574219 -5.485 9.30398438 -6.25 10.13671875 C-6.8275 10.75160156 -7.405 11.36648438 -8 12 C-8.66 11.67 -9.32 11.34 -10 11 C-8.52116808 9.35386588 -7.04192523 7.70810092 -5.5625 6.0625 C-4.73878906 5.14597656 -3.91507813 4.22945312 -3.06640625 3.28515625 C-1 1 -1 1 0 0 Z " fill="#E2E2E1" transform="translate(721,520)"/>
<path d="M0 0 C0.33 0 0.66 0 1 0 C1.33 4.95 1.66 9.9 2 15 C1.01 15.66 0.02 16.32 -1 17 C-1.33 16.01 -1.66 15.02 -2 14 C-1.67 13.34 -1.34 12.68 -1 12 C-0.77141886 9.9625237 -0.58975722 7.91959697 -0.4375 5.875 C-0.35371094 4.77929688 -0.26992188 3.68359375 -0.18359375 2.5546875 C-0.12300781 1.71164062 -0.06242188 0.86859375 0 0 Z " fill="#102237" transform="translate(671,452)"/>
<path d="M0 0 C0 3.58912412 -0.66436554 4.10857029 -3 6.6875 C-3.556875 7.31011719 -4.11375 7.93273437 -4.6875 8.57421875 C-5.120625 9.04472656 -5.55375 9.51523438 -6 10 C-6.99 9.67 -7.98 9.34 -9 9 C-6.03 6.03 -3.06 3.06 0 0 Z " fill="#030F1D" transform="translate(357,186)"/>
<path d="M0 0 C-1.49041773 3.79379058 -3.69062512 5.68343758 -7 8 C-7.66 8 -8.32 8 -9 8 C-7.70948419 4.12845257 -4.40863591 0 0 0 Z " fill="#EDECEB" transform="translate(528,934)"/>
<path d="M0 0 C0.66 0.66 1.32 1.32 2 2 C-0.66666667 4.66666667 -3.33333333 7.33333333 -6 10 C-6 6.41087588 -5.33563446 5.89142971 -3 3.3125 C-2.443125 2.68988281 -1.88625 2.06726563 -1.3125 1.42578125 C-0.879375 0.95527344 -0.44625 0.48476563 0 0 Z " fill="#EEEDEC" transform="translate(622,520)"/>
<path d="M0 0 C0 0.66 0 1.32 0 2 C-2.8125 4.1875 -2.8125 4.1875 -6 6 C-6.99 5.67 -7.98 5.34 -9 5 C-3.375 0 -3.375 0 0 0 Z " fill="#E7E7E5" transform="translate(676,813)"/>
<path d="M0 0 C0.66 0.33 1.32 0.66 2 1 C-0.57784846 3.64752004 -2.91648098 5.94432065 -6 8 C-6 5 -6 5 -4.6875 3.61328125 C-3.125 2.40885417 -1.5625 1.20442708 0 0 Z " fill="#EDEDEB" transform="translate(524,801)"/>
<path d="M0 0 C3.53372712 1.96318174 6.24479785 4.04070881 9 7 C8.236875 6.690625 7.47375 6.38125 6.6875 6.0625 C4.81210323 5.32106407 2.91315348 4.63771783 1 4 C0.3125 1.9375 0.3125 1.9375 0 0 Z " fill="#171C24" transform="translate(419,810)"/>
<path d="M0 0 C0.66 0.33 1.32 0.66 2 1 C2 2.98 2 4.96 2 7 C1.01 7.33 0.02 7.66 -1 8 C-0.67 5.36 -0.34 2.72 0 0 Z " fill="#19222F" transform="translate(339,723)"/>
<path d="M0 0 C0.99 0.33 1.98 0.66 3 1 C2.67 3.97 2.34 6.94 2 10 C-0.4294516 6.3558226 -0.16179575 4.28758728 0 0 Z " fill="#1F2E40" transform="translate(676,681)"/>
<path d="M0 0 C0.66 0.33 1.32 0.66 2 1 C2 3.31 2 5.62 2 8 C1.01 8 0.02 8 -1 8 C-0.67 5.36 -0.34 2.72 0 0 Z " fill="#0F1827" transform="translate(354,638)"/>
<path d="M0 0 C0 3 0 3 -2 5.1875 C-2.66 5.785625 -3.32 6.38375 -4 7 C-4.99 6.67 -5.98 6.34 -7 6 C-5.62209707 3.24419414 -3.62850007 2.51138754 -1 1 C-0.67 0.67 -0.34 0.34 0 0 Z " fill="#0E1D30" transform="translate(664,516)"/>
<path d="M0 0 C-1.38081223 4.1424367 -3.59825558 5.32203099 -7 8 C-7.66 7.67 -8.32 7.34 -9 7 C-7.88121617 5.82737096 -6.75476949 4.66204862 -5.625 3.5 C-4.68527344 2.52546875 -4.68527344 2.52546875 -3.7265625 1.53125 C-2 0 -2 0 0 0 Z " fill="#E3E3E2" transform="translate(405,297)"/>
<path d="M0 0 C2.25 0.25 2.25 0.25 4 1 C2.02 2.32 0.04 3.64 -2 5 C-2.66 4.67 -3.32 4.34 -4 4 C-2.25 1.9375 -2.25 1.9375 0 0 Z M-6 5 C-4 6 -4 6 -4 6 Z " fill="#EDECEA" transform="translate(684,804)"/>
<path d="M0 0 C0.33 0.66 0.66 1.32 1 2 C-0.65 3.98 -2.3 5.96 -4 8 C-4.33 7.01 -4.66 6.02 -5 5 C-3.35 3.35 -1.7 1.7 0 0 Z " fill="#DAD9D8" transform="translate(701,541)"/>
<path d="M0 0 C0.66 0.99 1.32 1.98 2 3 C1.01 3.99 0.02 4.98 -1 6 C-1.99 5.67 -2.98 5.34 -4 5 C-2.68 3.35 -1.36 1.7 0 0 Z " fill="#ECEAE9" transform="translate(650,490)"/>
</svg>
